<?xml version="1.0" encoding="utf-8"?>
<!-- Generator: Adobe Illustrator 16.0.0, SVG Export Plug-In . SVG Version: 6.00 Build 0)  -->
<!DOCTYPE svg PUBLIC "-//W3C//DTD SVG 1.1//EN" "http://www.w3.org/Graphics/SVG/1.1/DTD/svg11.dtd">
<svg version="1.1" id="Layer_1" xmlns="http://www.w3.org/2000/svg" xmlns:xlink="http://www.w3.org/1999/xlink" x="0px" y="0px"
	 width="116px" height="94px" viewBox="5.727 -5.833 116 94" enable-background="new 5.727 -5.833 116 94" xml:space="preserve">
<filter  id="drop-shadow">
	<feGaussianBlur  in="SourceAlpha" stdDeviation="3"></feGaussianBlur>
	<feOffset  result="offsetblur" dy="0" dx="0"></feOffset>
	<feFlood  flood-color="rgba(0,0,0,0.2)"></feFlood>
	<feComposite  in2="offsetblur" operator="in"></feComposite>
</filter>
<g filter="url(#drop-shadow)">
	<path fill="#282F6C" d="M116.661,48.607L99.73,19.889c-3.426-5.813-10.881-7.769-16.65-4.368l-6.237,3.677l-0.002-0.004
		L37.646,42.3c-1.057,0.623-2.503,0.128-3.23-1.104c-0.727-1.232-0.459-2.738,0.597-3.361l64.13-37.806l0.026,0.043l0.119-0.07
		L77.331,0l-8.849,5.015L26.327,29.866c-2.652,1.563-3.515,5.012-1.925,7.709l8.334,14.136c1.586,2.691,5.022,3.605,7.673,2.042
		l17.105-10.11l0.015,0.024l28.097-16.609c4.492-2.648,10.308-1.106,12.956,3.386l8.278,14.041c2.651,4.5,1.157,10.287-3.335,12.935
		l-35.128,20.71l-9.067,5.592l21.705,0.006L112.42,65.29C118.189,61.891,120.088,54.42,116.661,48.607z"/>
	<path fill="#282F6C" d="M103.964,46.258L95.63,32.121c-1.586-2.69-4.993-3.557-7.645-1.994L70.857,40.198l-0.008-0.015
		L42.712,56.727c-4.492,2.647-10.28,1.152-12.928-3.341l-8.277-14.04c-2.652-4.498-1.157-10.286,3.334-12.934L60.788,5.221
		l8.416-5.165L47.444,0.05L15.946,18.542c-5.769,3.401-7.667,10.871-4.24,16.683l16.93,28.718c3.427,5.813,10.882,7.769,16.65,4.367
		l6.237-3.677l0.002,0.005l39.194-23.106c1.057-0.624,2.503-0.129,3.23,1.104c0.727,1.233,0.459,2.738-0.597,3.361L29.224,83.805
		l-0.026-0.045l-0.12,0.07L50.814,84l9.071-5.182l42.154-24.852C104.692,52.402,105.554,48.955,103.964,46.258z"/>
</g>
<g>
	<path fill="#282F6C" d="M116.661,48.607L99.73,19.889c-3.426-5.813-10.881-7.769-16.65-4.368l-6.237,3.677l-0.002-0.004
		L37.646,42.3c-1.057,0.623-2.503,0.128-3.23-1.104c-0.727-1.232-0.459-2.738,0.597-3.361l64.13-37.806l0.026,0.043l0.119-0.07
		L77.331,0l-8.849,5.015L26.327,29.866c-2.652,1.563-3.515,5.012-1.925,7.709l8.334,14.136c1.586,2.691,5.022,3.605,7.673,2.042
		l17.105-10.11l0.015,0.024l28.097-16.609c4.492-2.648,10.308-1.106,12.956,3.386l8.278,14.041c2.651,4.5,1.157,10.287-3.335,12.935
		l-35.128,20.71l-9.067,5.592l21.705,0.006L112.42,65.29C118.189,61.891,120.088,54.42,116.661,48.607z"/>
	<path fill="#282F6C" d="M103.964,46.258L95.63,32.121c-1.586-2.69-4.993-3.557-7.645-1.994L70.857,40.198l-0.008-0.015
		L42.712,56.727c-4.492,2.647-10.28,1.152-12.928-3.341l-8.277-14.04c-2.652-4.498-1.157-10.286,3.334-12.934L60.788,5.221
		l8.416-5.165L47.444,0.05L15.946,18.542c-5.769,3.401-7.667,10.871-4.24,16.683l16.93,28.718c3.427,5.813,10.882,7.769,16.65,4.367
		l6.237-3.677l0.002,0.005l39.194-23.106c1.057-0.624,2.503-0.129,3.23,1.104c0.727,1.233,0.459,2.738-0.597,3.361L29.224,83.805
		l-0.026-0.045l-0.12,0.07L50.814,84l9.071-5.182l42.154-24.852C104.692,52.402,105.554,48.955,103.964,46.258z"/>
</g>
</svg>
