<svg version="1.1" id="Layer_1" xmlns="http://www.w3.org/2000/svg" xmlns:xlink="http://www.w3.org/1999/xlink" x="0px" y="0px" width="296.451px" height="84px" viewBox="0 0 296.451 84" enable-background="new 0 0 296.451 84" xml:space="preserve">
<defs>
	<filter id="drop-shadow">
		<feGaussianBlur in="SourceAlpha" stdDeviation="3"/>
		<feOffset dx="0" dy="0" result="offsetblur"/>
		<feFlood flood-color="rgba(0,0,0,0.2)"/>
		<feComposite in2="offsetblur" operator="in"/>
	</filter>
</defs>
<g filter="url(#drop-shadow)">
	<path fill="#CCCCCC" d="M125.091,72.037l5.257-25.016h4.813l2.921,21.845l4.556-21.845h3.26l-5.368,25.363h-4.814l-3.002-20.735 l-4.443,20.364L125.091,72.037z"/>
	<path fill="#CCCCCC" d="M144.006,72.4l4.96-25.128h12.868l-0.725,2.912l-9.438-0.015l-1.742,7.85l9.201-0.074l-0.869,2.906 l-8.978-0.129l-1.945,8.979l9.794-0.019l-0.497,2.703L144.006,72.4z"/>
	<path fill="#CCCCCC" d="M164.975,72.234l4.75-22.051h-6.422l0.504-2.912h15.917l-0.836,2.912h-6.17l-4.53,22.051H164.975z"/>
	<path fill="#CCCCCC" d="M181.478,72.253l0.08-24.796h3.078l-0.355,20.275l8.499-20.275h3.688l-0.296,20.382l8.376-20.382h3.534 L196.89,72.253h-3.552l0.129-19.784l-8.499,19.784H181.478z"/>
	<path fill="#CCCCCC" d="M204.714,65.829c0-0.876,0.092-1.919,0.276-3.129c0.187-1.21,0.457-2.538,0.813-3.983 c0.333-1.357,0.722-2.639,1.165-3.843c0.443-1.205,0.9-2.229,1.368-3.072c0.948-1.719,2.054-2.981,3.318-3.786 c1.263-0.805,2.77-1.208,4.519-1.208c2.28,0,4.006,0.61,5.177,1.832c1.171,1.221,1.757,3.024,1.757,5.412 c0,0.909-0.084,1.936-0.249,3.08c-0.168,1.145-0.411,2.379-0.73,3.704c-0.383,1.512-0.793,2.872-1.23,4.082 c-0.438,1.211-0.89,2.232-1.358,3.064c-0.937,1.708-2.039,2.965-3.31,3.769c-1.27,0.806-2.791,1.208-4.565,1.208 c-2.267,0-3.992-0.608-5.176-1.823C205.306,69.919,204.714,68.15,204.714,65.829z M215.794,49.506c-1.072,0-2.005,0.285-2.8,0.855 c-0.792,0.571-1.495,1.467-2.108,2.689c-0.372,0.727-0.725,1.596-1.059,2.604c-0.333,1.011-0.653,2.157-0.962,3.438 c-0.306,1.292-0.537,2.461-0.696,3.507c-0.159,1.045-0.238,1.937-0.238,2.673c0,1.605,0.34,2.807,1.018,3.604 c0.679,0.797,1.708,1.197,3.087,1.197c1.095,0,2.043-0.288,2.848-0.863c0.804-0.576,1.513-1.475,2.126-2.696 c0.372-0.737,0.732-1.628,1.084-2.674c0.349-1.045,0.673-2.213,0.969-3.506c0.295-1.282,0.52-2.449,0.672-3.499 c0.153-1.051,0.23-1.944,0.23-2.681c0-1.515-0.356-2.668-1.067-3.461S217.15,49.506,215.794,49.506z"/>
	<path fill="#CCCCCC" d="M221.946,72.401l5.214-25.128h9.05c1.935,0.304,2.768,0.674,3.607,1.434 c0.91,0.824,1.474,2.167,1.474,3.684c0,1.74-0.945,4.252-2.129,5.554c-0.926,1.018-2.452,2.105-3.201,1.929 c2.109,0.497,2.461,1.496,2.382,3.252c-0.036,0.799-0.125,1.93-0.375,3.393c-0.25,1.461-0.232,2.476-0.255,3.045 c-0.051,1.247,0.061,1.803,0.656,1.788l-0.164,1.106h-3.53c-0.208-0.519-0.226-1.483-0.271-2.118 c0.041-0.634,0.186-1.625,0.433-2.972c0.248-1.346,0.371-2.4,0.371-3.162c0-1.854-0.838-2.781-3.29-2.781h-4.451l-2.42,10.977 H221.946 M228.037,58.668l5.411-0.111c0.577,0,1.751-0.373,2.303-0.896c0.552-0.524,0.999-1.183,1.342-1.977 c0.345-0.794,0.627-1.577,0.627-2.349c0-0.888-0.02-1.706-0.501-2.232c-0.481-0.527-1.554-0.9-2.554-0.9h-4.992L228.037,58.668z"/>
	<path fill="#CCCCCC" d="M239.89,72.439l5.302-25.184h3.221l-2.746,12.442l11.389-12.442h4l-10.413,10.751l5.136,14.433h-3.749 l-4.054-11.967l-3.115,3.432l-1.799,8.536H239.89"/>
	<path fill="#CCCCCC" d="M257.1,64.157h3.071c0,1.319-1.247,3.67,0.003,4.801c1.189,1.076,2.434,1.366,4.055,1.145 c1.957-0.266,3.461-1.193,4.26-3.042c0.701-1.62,1.082-4.318-1.029-5.038l-4.479-1.653c-2.713-1.316-3.563-2.235-3.639-4.556 c0.056-1.389,0.335-2.869,0.926-4.258c0.576-1.256,1.62-2.392,2.805-3.265c1.186-0.874,3.21-1.586,5.026-1.586 c1.461,0,3.236,0.367,4.424,1.186c1.188,0.819,1.629,2.257,1.629,4.776c0,0.628-0.236,1.172-0.277,1.536h-3.055 c0.273-1.475,0.445-2.489-0.521-3.739c-0.875-1.128-3.324-0.949-4.484-0.456c-1.597,0.679-2.45,1.773-2.94,3.451 c-0.465,1.588-0.038,3.104,1.583,3.707l4.227,1.611c1.152,0.436,2.139,1.229,2.887,2.105c0.73,0.856,0.99,2.06,0.826,3.42 c-0.596,4.937-4.176,8.636-9.258,8.636c-1.77,0-3.74-0.357-4.999-1.388c-1.259-1.032-1.562-2.555-1.592-4.536 C256.602,66.132,256.905,65.084,257.1,64.157"/>
	<path fill="#CCCCCC" d="M152.592,19.993c-2.668,0-5.279,0-7.948,0c0.104-0.796,0.242-1.813,0.277-2.615 c0.035-0.807,0.219-1.493-0.625-1.805c-1.597-0.59-3.124,0.972-2.916,2.95c0.124,1.182,2.486,2.5,3.159,2.985 c1.493,1.076,2.958,1.881,3.98,3.089c0.995,1.177,1.643,2.152,1.782,4.286c0.108,1.655-0.152,3.345-0.602,4.947 c-0.613,2.187-1.912,4.976-5.057,6.908c-1.318,0.81-2.568,1.458-5.165,1.656c-0.974,0.074-1.958,0.135-2.931,0.044 c-2.214-0.208-3.673-0.933-4.343-1.341c-0.74-0.451-2.338-1.622-2.765-3.969c-0.208-1.146-0.163-2.28,0.208-4.235 c0.098-0.517,0.535-2.203,0.639-2.719c0.015-0.075,0.72-0.046,0.799-0.046c2.425,0,4.849,0,7.274,0 c-0.303,1.519-0.852,3.048-0.655,4.617c0.136,1.084,2.062,0.981,2.708,0.525c1.117-0.789,1.625-2.208,1.437-3.532 c-0.116-0.808-0.847-1.379-1.438-1.862c-1.221-1-2.685-1.694-3.903-2.71c-1.295-1.08-2.267-2.265-3.02-3.771 c-0.74-1.479-0.556-3.289-0.295-4.85c0.543-3.257,1.955-5.91,4.646-7.867c2.527-1.838,6.271-2.323,9.441-1.839 c3.372,0.667,5.335,2.685,5.893,6.053C153.32,15.92,153.078,18.106,152.592,19.993"/>
	<polygon fill="#CCCCCC" points="152.953,9.348 161.709,9.348 163.005,18.313 168.188,9.325 177.052,9.325 165.157,28.37 162.265,41.768 153.68,41.768 156.525,28.416 156.525,27.661"/>
	<polygon fill="#CCCCCC" points="262.354,9.348 271.109,9.348 272.404,18.313 277.588,9.325 286.451,9.325 274.557,28.369 271.664,41.768 263.079,41.768 265.926,28.416 265.926,27.661"/>
	<polygon fill="#CCCCCC" points="185.837,9.394 177.284,9.394 170.342,41.699 178.579,41.699 181.032,28.185 182.606,41.745 191.122,41.745 198.018,9.348 189.733,9.348 187.42,23.223"/>
	<polygon fill="#CCCCCC" points="199.916,9.394 217.966,9.394 216.484,16.892 206.997,16.892 206.071,21.289 215.143,21.289 213.578,28.833 204.497,28.833 203.341,34.201 213.198,34.201 211.625,41.745 193.112,41.745"/>
	<path fill="#CCCCCC" d="M220.169,9.422l12.181-0.078c1.703,0.29,3.771,0.506,5.159,1.643c1.479,1.209,1.913,2.909,1.913,4.764 c0,3.446-1.108,7.541-4.186,9.477l-0.405,0.27l-0.27,0.225l0.27,0.135c2.613,1.761,1.578,5.188,1.01,7.746 c-0.329,1.479-0.459,3.038-0.649,4.54c-0.068,0.542-0.14,1.436-0.033,1.918c0.068,0.309,0.44,0.426,0.44,0.426 c-0.054,0.265-0.054,0.297-0.128,0.711c-0.019,0.104-0.082,0.42-0.138,0.542l-9.037,0.007l-0.093-0.463l-0.092-0.741v-0.648v-0.648 l0.092-0.648l0.093-0.74l0.186-0.648l0.186-0.741l0.185-0.741l0.185-0.833l0.186-0.648l0.186-1.296v-0.647l0.093-0.648v-0.833 l-0.093-0.556l-0.278-0.463l-0.37-0.185l-0.647-0.093h-0.833l-0.833,0.093l-2.499,12.126h-8.701L220.169,9.422 M227.316,16.273 l-1.395,6.301h1.845l0.54-0.09l0.495-0.225l0.404-0.36l0.36-0.315l0.314-0.54l0.271-0.54l0.225-0.63l0.136-0.63l0.09-0.72 l0.09-0.63l-0.045-0.63l-0.225-0.45l-0.315-0.27l-0.495-0.225l-0.646-0.056L227.316,16.273z"/>
	<path fill="#CCCCCC" d="M261.331,21.196h-8.608l0.231-0.787l0.186-0.741c0.13-0.65,0.216-1.308,0.316-1.963 c0.107-0.705,0.226-1.388-0.207-1.993c-0.258-0.36-1.548-0.307-1.891-0.16c-0.683,0.292-1.124,0.713-1.412,1.386l-3.61,16.708 l-0.093,0.417v0.371v0.278l0.139,0.324c0.631,0.925,2.649,0.677,3.214-0.17c0.792-1.188,0.804-2.459,1.275-3.764l0.093-0.555 h-2.592l1.481-6.85h11.107l-3.795,18.096h-6.109v-1.435l-0.231,0.139l-0.37,0.231c-1.666,1.759-6.442,2.386-9.303,1.134 c-3.392-1.484-3.704-5.154-3.379-8.4l3.472-16.06c1.064-3.378,3.403-7.133,7.048-8.042c2.377-0.594,4.421-0.916,6.929-0.668 c2.063,0.204,4.525,0.983,5.806,2.69c1.542,2.054,1.31,4.556,0.951,6.946L261.331,21.196"/>
	<path fill="#282F6C" d="M116.661,48.607L99.73,19.889c-3.426-5.813-10.881-7.769-16.65-4.368l-6.237,3.677l-0.002-0.004 L37.646,42.3c-1.057,0.623-2.503,0.128-3.23-1.104s-0.459-2.738,0.597-3.361L99.143,0.029l0.026,0.043l0.119-0.07L77.331,0 l-8.849,5.015L26.327,29.866c-2.652,1.563-3.515,5.012-1.925,7.709l8.334,14.136c1.586,2.691,5.022,3.605,7.673,2.042 l17.105-10.111l0.015,0.025l28.097-16.609c4.492-2.648,10.308-1.106,12.956,3.386l8.278,14.041 c2.651,4.499,1.157,10.286-3.335,12.934L68.397,78.129L59.33,83.72l21.705,0.007L112.42,65.29 C118.189,61.89,120.088,54.42,116.661,48.607z"/>
	<path fill="#282F6C" d="M103.964,46.258L95.63,32.121c-1.586-2.69-4.993-3.557-7.645-1.994L70.857,40.198l-0.008-0.015 L42.712,56.726c-4.492,2.648-10.28,1.153-12.928-3.34l-8.277-14.04c-2.652-4.498-1.157-10.286,3.334-12.934L60.788,5.221 l8.416-5.165L47.444,0.05L15.946,18.542c-5.769,3.401-7.667,10.871-4.24,16.683l16.93,28.718c3.427,5.813,10.882,7.769,16.65,4.368 l6.237-3.677l0.002,0.004l39.194-23.106c1.057-0.624,2.503-0.129,3.23,1.104c0.727,1.233,0.459,2.738-0.597,3.361L29.224,83.804 l-0.026-0.044l-0.12,0.07L50.814,84l9.071-5.182l42.154-24.851C104.692,52.403,105.554,48.955,103.964,46.258z"/>
</g>
<g>
	<path fill="#CCCCCC" d="M125.091,72.037l5.257-25.016h4.813l2.921,21.845l4.556-21.845h3.26l-5.368,25.363h-4.814l-3.002-20.735 l-4.443,20.364L125.091,72.037z"/>
	<path fill="#CCCCCC" d="M144.006,72.4l4.96-25.128h12.868l-0.725,2.912l-9.438-0.015l-1.742,7.85l9.201-0.074l-0.869,2.906 l-8.978-0.129l-1.945,8.979l9.794-0.019l-0.497,2.703L144.006,72.4z"/>
	<path fill="#CCCCCC" d="M164.975,72.234l4.75-22.051h-6.422l0.504-2.912h15.917l-0.836,2.912h-6.17l-4.53,22.051H164.975z"/>
	<path fill="#CCCCCC" d="M181.478,72.253l0.08-24.796h3.078l-0.355,20.275l8.499-20.275h3.688l-0.296,20.382l8.376-20.382h3.534 L196.89,72.253h-3.552l0.129-19.784l-8.499,19.784H181.478z"/>
	<path fill="#CCCCCC" d="M204.714,65.829c0-0.876,0.092-1.919,0.276-3.129c0.187-1.21,0.457-2.538,0.813-3.983 c0.333-1.357,0.722-2.639,1.165-3.843c0.443-1.205,0.9-2.229,1.368-3.072c0.948-1.719,2.054-2.981,3.318-3.786 c1.263-0.805,2.77-1.208,4.519-1.208c2.28,0,4.006,0.61,5.177,1.832c1.171,1.221,1.757,3.024,1.757,5.412 c0,0.909-0.084,1.936-0.249,3.08c-0.168,1.145-0.411,2.379-0.73,3.704c-0.383,1.512-0.793,2.872-1.23,4.082 c-0.438,1.211-0.89,2.232-1.358,3.064c-0.937,1.708-2.039,2.965-3.31,3.769c-1.27,0.806-2.791,1.208-4.565,1.208 c-2.267,0-3.992-0.608-5.176-1.823C205.306,69.919,204.714,68.15,204.714,65.829z M215.794,49.506c-1.072,0-2.005,0.285-2.8,0.855 c-0.792,0.571-1.495,1.467-2.108,2.689c-0.372,0.727-0.725,1.596-1.059,2.604c-0.333,1.011-0.653,2.157-0.962,3.438 c-0.306,1.292-0.537,2.461-0.696,3.507c-0.159,1.045-0.238,1.937-0.238,2.673c0,1.605,0.34,2.807,1.018,3.604 c0.679,0.797,1.708,1.197,3.087,1.197c1.095,0,2.043-0.288,2.848-0.863c0.804-0.576,1.513-1.475,2.126-2.696 c0.372-0.737,0.732-1.628,1.084-2.674c0.349-1.045,0.673-2.213,0.969-3.506c0.295-1.282,0.52-2.449,0.672-3.499 c0.153-1.051,0.23-1.944,0.23-2.681c0-1.515-0.356-2.668-1.067-3.461S217.15,49.506,215.794,49.506z"/>
	<path fill="#CCCCCC" d="M221.946,72.401l5.214-25.128h9.05c1.935,0.304,2.768,0.674,3.607,1.434 c0.91,0.824,1.474,2.167,1.474,3.684c0,1.74-0.945,4.252-2.129,5.554c-0.926,1.018-2.452,2.105-3.201,1.929 c2.109,0.497,2.461,1.496,2.382,3.252c-0.036,0.799-0.125,1.93-0.375,3.393c-0.25,1.461-0.232,2.476-0.255,3.045 c-0.051,1.247,0.061,1.803,0.656,1.788l-0.164,1.106h-3.53c-0.208-0.519-0.226-1.483-0.271-2.118 c0.041-0.634,0.186-1.625,0.433-2.972c0.248-1.346,0.371-2.4,0.371-3.162c0-1.854-0.838-2.781-3.29-2.781h-4.451l-2.42,10.977 H221.946 M228.037,58.668l5.411-0.111c0.577,0,1.751-0.373,2.303-0.896c0.552-0.524,0.999-1.183,1.342-1.977 c0.345-0.794,0.627-1.577,0.627-2.349c0-0.888-0.02-1.706-0.501-2.232c-0.481-0.527-1.554-0.9-2.554-0.9h-4.992L228.037,58.668z"/>
	<path fill="#CCCCCC" d="M239.89,72.439l5.302-25.184h3.221l-2.746,12.442l11.389-12.442h4l-10.413,10.751l5.136,14.433h-3.749 l-4.054-11.967l-3.115,3.432l-1.799,8.536H239.89"/>
	<path fill="#CCCCCC" d="M257.1,64.157h3.071c0,1.319-1.247,3.67,0.003,4.801c1.189,1.076,2.434,1.366,4.055,1.145 c1.957-0.266,3.461-1.193,4.26-3.042c0.701-1.62,1.082-4.318-1.029-5.038l-4.479-1.653c-2.713-1.316-3.563-2.235-3.639-4.556 c0.056-1.389,0.335-2.869,0.926-4.258c0.576-1.256,1.62-2.392,2.805-3.265c1.186-0.874,3.21-1.586,5.026-1.586 c1.461,0,3.236,0.367,4.424,1.186c1.188,0.819,1.629,2.257,1.629,4.776c0,0.628-0.236,1.172-0.277,1.536h-3.055 c0.273-1.475,0.445-2.489-0.521-3.739c-0.875-1.128-3.324-0.949-4.484-0.456c-1.597,0.679-2.45,1.773-2.94,3.451 c-0.465,1.588-0.038,3.104,1.583,3.707l4.227,1.611c1.152,0.436,2.139,1.229,2.887,2.105c0.73,0.856,0.99,2.06,0.826,3.42 c-0.596,4.937-4.176,8.636-9.258,8.636c-1.77,0-3.74-0.357-4.999-1.388c-1.259-1.032-1.562-2.555-1.592-4.536 C256.602,66.132,256.905,65.084,257.1,64.157"/>
</g>
<g>
	<path fill="#CCCCCC" d="M152.592,19.993c-2.668,0-5.279,0-7.948,0c0.104-0.796,0.242-1.813,0.277-2.615 c0.035-0.807,0.219-1.493-0.625-1.805c-1.597-0.59-3.124,0.972-2.916,2.95c0.124,1.182,2.486,2.5,3.159,2.985 c1.493,1.076,2.958,1.881,3.98,3.089c0.995,1.177,1.643,2.152,1.782,4.286c0.108,1.655-0.152,3.345-0.602,4.947 c-0.613,2.187-1.912,4.976-5.057,6.908c-1.318,0.81-2.568,1.458-5.165,1.656c-0.974,0.074-1.958,0.135-2.931,0.044 c-2.214-0.208-3.673-0.933-4.343-1.341c-0.74-0.451-2.338-1.622-2.765-3.969c-0.208-1.146-0.163-2.28,0.208-4.235 c0.098-0.517,0.535-2.203,0.639-2.719c0.015-0.075,0.72-0.046,0.799-0.046c2.425,0,4.849,0,7.274,0 c-0.303,1.519-0.852,3.048-0.655,4.617c0.136,1.084,2.062,0.981,2.708,0.525c1.117-0.789,1.625-2.208,1.437-3.532 c-0.116-0.808-0.847-1.379-1.438-1.862c-1.221-1-2.685-1.694-3.903-2.71c-1.295-1.08-2.267-2.265-3.02-3.771 c-0.74-1.479-0.556-3.289-0.295-4.85c0.543-3.257,1.955-5.91,4.646-7.867c2.527-1.838,6.271-2.323,9.441-1.839 c3.372,0.667,5.335,2.685,5.893,6.053C153.32,15.92,153.078,18.106,152.592,19.993"/>
	<polygon fill="#CCCCCC" points="152.953,9.348 161.709,9.348 163.005,18.313 168.188,9.325 177.052,9.325 165.157,28.37 162.265,41.768 153.68,41.768 156.525,28.416 156.525,27.661"/>
	<polygon fill="#CCCCCC" points="262.354,9.348 271.109,9.348 272.404,18.313 277.588,9.325 286.451,9.325 274.557,28.369 271.664,41.768 263.079,41.768 265.926,28.416 265.926,27.661"/>
	<polygon fill="#CCCCCC" points="185.837,9.394 177.284,9.394 170.342,41.699 178.579,41.699 181.032,28.185 182.606,41.745 191.122,41.745 198.018,9.348 189.733,9.348 187.42,23.223"/>
	<polygon fill="#CCCCCC" points="199.916,9.394 217.966,9.394 216.484,16.892 206.997,16.892 206.071,21.289 215.143,21.289 213.578,28.833 204.497,28.833 203.341,34.201 213.198,34.201 211.625,41.745 193.112,41.745"/>
	<path fill="#CCCCCC" d="M220.169,9.422l12.181-0.078c1.703,0.29,3.771,0.506,5.159,1.643c1.479,1.209,1.913,2.909,1.913,4.764 c0,3.446-1.108,7.541-4.186,9.477l-0.405,0.27l-0.27,0.225l0.27,0.135c2.613,1.761,1.578,5.188,1.01,7.746 c-0.329,1.479-0.459,3.038-0.649,4.54c-0.068,0.542-0.14,1.436-0.033,1.918c0.068,0.309,0.44,0.426,0.44,0.426 c-0.054,0.265-0.054,0.297-0.128,0.711c-0.019,0.104-0.082,0.42-0.138,0.542l-9.037,0.007l-0.093-0.463l-0.092-0.741v-0.648v-0.648 l0.092-0.648l0.093-0.74l0.186-0.648l0.186-0.741l0.185-0.741l0.185-0.833l0.186-0.648l0.186-1.296v-0.647l0.093-0.648v-0.833 l-0.093-0.556l-0.278-0.463l-0.37-0.185l-0.647-0.093h-0.833l-0.833,0.093l-2.499,12.126h-8.701L220.169,9.422 M227.316,16.273 l-1.395,6.301h1.845l0.54-0.09l0.495-0.225l0.404-0.36l0.36-0.315l0.314-0.54l0.271-0.54l0.225-0.63l0.136-0.63l0.09-0.72 l0.09-0.63l-0.045-0.63l-0.225-0.45l-0.315-0.27l-0.495-0.225l-0.646-0.056L227.316,16.273z"/>
	<path fill="#CCCCCC" d="M261.331,21.196h-8.608l0.231-0.787l0.186-0.741c0.13-0.65,0.216-1.308,0.316-1.963 c0.107-0.705,0.226-1.388-0.207-1.993c-0.258-0.36-1.548-0.307-1.891-0.16c-0.683,0.292-1.124,0.713-1.412,1.386l-3.61,16.708 l-0.093,0.417v0.371v0.278l0.139,0.324c0.631,0.925,2.649,0.677,3.214-0.17c0.792-1.188,0.804-2.459,1.275-3.764l0.093-0.555 h-2.592l1.481-6.85h11.107l-3.795,18.096h-6.109v-1.435l-0.231,0.139l-0.37,0.231c-1.666,1.759-6.442,2.386-9.303,1.134 c-3.392-1.484-3.704-5.154-3.379-8.4l3.472-16.06c1.064-3.378,3.403-7.133,7.048-8.042c2.377-0.594,4.421-0.916,6.929-0.668 c2.063,0.204,4.525,0.983,5.806,2.69c1.542,2.054,1.31,4.556,0.951,6.946L261.331,21.196"/>
</g>
<g>
	<path fill="#282F6C" d="M116.661,48.607L99.73,19.889c-3.426-5.813-10.881-7.769-16.65-4.368l-6.237,3.677l-0.002-0.004 L37.646,42.3c-1.057,0.623-2.503,0.128-3.23-1.104s-0.459-2.738,0.597-3.361L99.143,0.029l0.026,0.043l0.119-0.07L77.331,0 l-8.849,5.015L26.327,29.866c-2.652,1.563-3.515,5.012-1.925,7.709l8.334,14.136c1.586,2.691,5.022,3.605,7.673,2.042 l17.105-10.111l0.015,0.025l28.097-16.609c4.492-2.648,10.308-1.106,12.956,3.386l8.278,14.041 c2.651,4.499,1.157,10.286-3.335,12.934L68.397,78.129L59.33,83.72l21.705,0.007L112.42,65.29 C118.189,61.89,120.088,54.42,116.661,48.607z"/>
	<path fill="#282F6C" d="M103.964,46.258L95.63,32.121c-1.586-2.69-4.993-3.557-7.645-1.994L70.857,40.198l-0.008-0.015 L42.712,56.726c-4.492,2.648-10.28,1.153-12.928-3.34l-8.277-14.04c-2.652-4.498-1.157-10.286,3.334-12.934L60.788,5.221 l8.416-5.165L47.444,0.05L15.946,18.542c-5.769,3.401-7.667,10.871-4.24,16.683l16.93,28.718c3.427,5.813,10.882,7.769,16.65,4.368 l6.237-3.677l0.002,0.004l39.194-23.106c1.057-0.624,2.503-0.129,3.23,1.104c0.727,1.233,0.459,2.738-0.597,3.361L29.224,83.804 l-0.026-0.044l-0.12,0.07L50.814,84l9.071-5.182l42.154-24.851C104.692,52.403,105.554,48.955,103.964,46.258z"/>
</g>
</svg>